<?xml version="1.0" standalone="no"?>
<!DOCTYPE svg PUBLIC "-//W3C//DTD SVG 20010904//EN"
 "http://www.w3.org/TR/2001/REC-SVG-20010904/DTD/svg10.dtd">
<svg version="1.0" xmlns="http://www.w3.org/2000/svg"
 width="720.000000pt" height="720.000000pt" viewBox="0 0 720.000000 720.000000"
 preserveAspectRatio="xMidYMid meet">
<metadata>
Created by potrace 1.14, written by Peter Selinger 2001-2017
</metadata>
<g transform="translate(0.000000,720.000000) scale(0.100000,-0.100000)"
fill="#000000" stroke="none">
<path d="M105 4535 l0 -365 288 0 287 0 1 -22 c0 -13 1 -418 1 -900 l1 -878
376 0 377 0 0 898 -1 897 287 3 287 2 3 208 c2 114 2 278 0 365 l-2 157 -953
0 -952 0 0 -365z"/>
<path d="M2924 4863 c-14 -34 -27 -64 -55 -128 -9 -22 -13 -32 -389 -920 -145
-341 -269 -635 -277 -652 l-13 -33 495 0 495 0 0 275 0 275 -76 0 c-89 0 -89
-13 -4 150 33 63 60 120 60 127 0 6 4 14 8 17 5 3 44 75 87 161 42 85 79 155
81 155 2 0 4 -404 4 -897 -1 -494 -1 -926 0 -960 l0 -63 355 0 355 0 0 73 c0
85 0 1704 0 2150 l0 307 -556 0 -555 0 -15 -37z"/>
<path d="M4393 3933 c2 -533 7 -986 11 -1008 59 -327 218 -520 486 -592 69
-18 286 -25 368 -11 71 12 182 55 236 91 63 42 140 117 197 192 23 30 42 55
44 55 1 0 16 -21 33 -47 95 -146 241 -249 402 -285 163 -37 375 -12 516 60
156 79 311 267 350 422 2 8 8 33 14 55 21 86 23 161 24 1083 l1 952 -377 0
-378 0 -2 -872 -3 -873 -24 -42 c-17 -29 -33 -44 -53 -48 -43 -10 -87 4 -106
33 -16 24 -17 95 -20 914 l-2 888 -378 0 -377 0 -1 -848 c0 -466 -3 -865 -6
-886 -12 -79 -80 -124 -147 -97 -56 24 -55 7 -55 958 l-1 873 -378 0 -378 0 4
-967z"/>
</g>
</svg>
